<svg width="383" height="383" viewBox="0 0 383 383" fill="none" xmlns="http://www.w3.org/2000/svg">
<g clip-path="url(#clip0_487_3)">
<path d="M0 0C126.39 0 252.78 0 383 0C383 126.39 383 252.78 383 383C256.61 383 130.22 383 0 383C0 256.61 0 130.22 0 0Z" fill="#EAF4FF"/>
<path d="M226.016 90.4731C236.411 98.2188 243.318 106.787 248.948 118.294C249.634 119.657 249.634 119.657 250.334 121.048C256.157 135.004 254.353 153.533 248.697 167.245C244.102 177.905 237.106 186.215 228.898 194.315C230.026 194.777 231.154 195.239 232.317 195.714C248.499 202.503 261.472 211.117 274.011 223.324C274.654 223.904 275.298 224.484 275.961 225.082C288.603 236.757 298.064 254.067 303.084 270.337C303.359 271.217 303.634 272.096 303.918 273.002C307.093 283.833 311.903 300.602 306.698 311.193C305.089 313.349 305.089 313.349 303.084 314.35C300.137 314.457 297.215 314.502 294.268 314.504C293.344 314.508 292.42 314.512 291.468 314.517C288.352 314.53 285.237 314.537 282.121 314.543C279.895 314.551 277.669 314.559 275.444 314.567C268.118 314.594 260.793 314.609 253.467 314.623C250.949 314.629 248.431 314.634 245.913 314.639C235.444 314.661 224.974 314.68 214.505 314.691C211.787 314.694 209.07 314.697 206.353 314.7C205.677 314.701 205.002 314.701 204.306 314.702C193.359 314.715 182.413 314.748 171.466 314.79C160.233 314.832 149 314.855 137.766 314.861C131.457 314.865 125.148 314.877 118.838 314.909C112.906 314.939 106.973 314.946 101.04 314.934C98.8596 314.934 96.6789 314.942 94.4982 314.959C91.5271 314.982 88.5576 314.974 85.5865 314.958C84.718 314.972 83.8495 314.986 82.9547 315C77.1204 314.922 77.1204 314.922 73.976 311.941C72.5365 309.401 72.0012 308.098 72.0091 305.23C72.0061 304.466 72.0031 303.701 72 302.914C72.0224 302.108 72.0447 301.301 72.0678 300.471C72.0818 299.628 72.0957 298.786 72.1101 297.918C72.9994 267.362 88.2188 240.11 109.815 219.17C120.572 209.342 137.471 195.316 152.707 195.316C152.707 194.655 152.707 193.995 152.707 193.315C152.145 193.075 151.583 192.835 151.004 192.588C139.095 186.011 131.981 172.372 128.086 159.866C123.754 143.743 125.891 126.608 133.847 112.042C143.775 96.1927 157.69 85.5529 175.702 80.4078C193.031 76.5857 211.311 80.7451 226.016 90.4731Z" fill="#0472FF"/>
<path d="M0 0C126.39 0 252.78 0 383 0C383 126.39 383 252.78 383 383C256.61 383 130.22 383 0 383C0 256.61 0 130.22 0 0ZM147 5C145.905 5.28883 145.905 5.28883 144.787 5.5835C140.111 6.85668 135.564 8.37117 131 10C130.35 10.2241 129.7 10.4483 129.031 10.6792C104.449 19.1687 82.3849 32.287 63.2734 49.9141C61.1611 51.8522 59 53.7102 56.8125 55.5625C43.4006 67.2825 32.3577 83.3563 24 99C23.5321 99.8706 23.0641 100.741 22.582 101.638C16.2973 113.523 11.1536 125.44 7.4375 138.375C7.1274 139.454 6.8173 140.532 6.4978 141.643C2.12407 157.883 0.440212 173.914 0.5625 190.688C0.564877 191.553 0.567253 192.419 0.569702 193.31C0.630386 207.496 1.63682 221.169 5 235C5.1708 235.707 5.3416 236.413 5.51758 237.142C6.52035 241.151 7.71198 245.075 9 249C9.28359 249.949 9.56719 250.897 9.85938 251.875C18.0147 278.201 32.9267 302.205 52 322C52.5564 322.587 53.1128 323.175 53.686 323.78C63.0506 333.633 72.7293 342.38 84 350C84.8696 350.588 84.8696 350.588 85.7568 351.188C113.19 369.354 146.893 382.026 180.082 382.203C180.936 382.209 181.789 382.215 182.669 382.22C184.472 382.23 186.274 382.236 188.077 382.24C190.767 382.25 193.456 382.281 196.146 382.312C211.181 382.405 225.899 380.779 240.438 376.812C241.204 376.606 241.971 376.4 242.761 376.187C270.816 368.286 295.989 353.882 318 335C318.984 334.16 319.967 333.319 320.98 332.453C326.102 327.959 330.648 323.233 335 318C335.759 317.129 336.519 316.257 337.301 315.359C352.769 297.365 363.805 277.196 372 255C372.253 254.331 372.505 253.662 372.766 252.973C378.507 237.66 382.144 220.723 382.168 204.348C382.171 203.53 382.175 202.712 382.178 201.869C382.183 200.142 382.185 198.415 382.185 196.688C382.187 194.101 382.206 191.515 382.225 188.928C382.384 143.08 365.306 98.0795 334.113 64.3008C332.204 62.2221 330.38 60.0958 328.562 57.9375C302.877 28.6079 263.783 10.2752 226 3C225.119 2.82195 224.238 2.6439 223.33 2.46045C212.963 0.595334 202.623 0.603597 192.125 0.625C190.694 0.625317 190.694 0.625317 189.234 0.625641C174.843 0.657513 160.976 1.25752 147 5Z" fill="#FEFEFF"/>
<path d="M249.688 224.989C251.136 226.191 252.573 227.406 254 228.634C254.799 229.293 255.598 229.951 256.422 230.629C274.533 246.125 286.014 268.312 289 291.978C289 293.305 289 294.633 289 296C223.66 296 158.32 296 91 296C93.3351 278.391 93.3351 278.391 95.625 272.309C95.883 271.603 96.1409 270.897 96.4067 270.17C106.156 244.564 126.08 224.657 150.607 213.233C182.795 198.9 221.595 203.57 249.688 224.989Z" fill="#EAF4FF"/>
<path d="M188.694 98.0035C189.569 98.0125 190.444 98.0215 191.345 98.0308C204.611 98.384 214.812 103.172 224.039 112.859C233.572 124.259 235.579 135.564 234.87 150.149C233.646 162.471 226.058 171.912 217.045 179.647C213.808 182.146 210.618 183.905 206.826 185.398C205.764 185.844 205.764 185.844 204.68 186.3C195.15 189.773 184.045 190.035 174.598 186.272C172.732 185.363 170.887 184.407 169.072 183.399C168.266 182.953 167.461 182.507 166.631 182.048C156.368 175.751 150.179 166.74 146.22 155.413C143.765 142.005 144.701 130.392 151.933 118.743C160.996 105.937 172.806 97.8072 188.694 98.0035Z" fill="#E9F4FF"/>
</g>
<defs>
<clipPath id="clip0_487_3">
<rect width="383" height="383" fill="white"/>
</clipPath>
</defs>
</svg>
